<svg version="1.2" xmlns="http://www.w3.org/2000/svg" viewBox="0 0 500 500" width="500" height="500"><style>.a{fill:#fff}</style><path fill-rule="evenodd" class="a" d="m250 500c-138.3 0-250-111.8-250-250 0-138.3 111.8-250 250-250 138.3 0 250 111.8 250 250 0 138.3-111.8 250-250 250z"/><path  d="m247.6 417.4q-8.8 0-20.8-10.8-11.6-11.2-24.4-28.8-12.8-18-25.6-39.2-12.4-21.2-23.2-42.4-10.4-21.2-17.6-38-11.2 39.2-21.6 77.2-10.4 37.6-19.6 68.4-10 0-18.4-5.6-8-5.6-8-14.4 0-4.4 2-10.4 2-6.4 3.6-11.6 10-31.6 19.6-59.6 9.6-28 18.8-54 9.2-26 18.8-51.6 10-25.6 20.8-51.6 10.8-26 23.2-54-16.8 2.8-29.2 8.4-12.4 5.2-20 10-7.6 4.4-10.4 4.4-1.6 0-4.8-1.6-2.8-2-5.2-4.4-2.4-2.8-2.4-4.8 10.4-4.4 24.4-9.6 14-5.2 30.8-8.8 16.8-3.6 34.8-3.6 17.2 0 34.8 4.4 18 4 32.8 13.2 15.2 8.8 24.4 23.2 9.2 14 9.2 34 0 19.6-9.2 34-8.8 14-23.6 23.6-14.4 9.6-31.6 15.6-17.2 5.6-34 8.8-16.8 2.8-30.4 4-13.6 0.8-20.4 0.8 12.4 21.2 23.6 41.2 11.2 20 24.4 40 13.2 19.6 31.2 39.6 18 20 43.6 40.8-2.4 5.2-8.8 9.2-6 4-11.6 4zm-105.2-181.2q21.6-1.2 43.6-6.8 22.4-6 40.8-16.4 18.4-10.8 29.6-26.8 11.2-16.4 11.2-38.8 0-22-10.4-34.4-10.4-12.8-26.8-18-16.4-5.6-34.4-5.6-13.6 27.6-27.2 66.4-13.6 38.4-26.4 80.4zm182 153.2q-18.8 0-30-8-10.8-8.4-15.6-20.4-4.4-12-4.4-24 0-12 3.2-18.4 3.2-6.4 7.6-9.6 4.8-3.2 8.8-4.8 4.4-1.6 6-3.2 12-13.2 22-27.6 10-14.4 17.6-30.4v-4.8q0-14.8 4.8-20.8 5.2-6.4 10.8-6.4 3.2 0 4.8 1.6 1.6 1.6 1.6 3.6 0 2-1.2 6.4-1.2 4.4-1.2 11.2 0 13.2 5.2 28.8 5.2 15.2 10.4 32.4 5.2 16.8 5.2 35.2 0 5.2-0.8 10.4-0.4 4.8-1.6 9.2 14-2.4 26.4-12.4 12.4-10.4 24-32.8l3.6 4q-7.6 22-22.8 33.6-15.2 11.2-33.2 14-6.4 17.2-20.4 25.2-13.6 8-30.8 8zm0.8-14q4.8 0 12.8-3.2 8-3.2 12.4-16.4-16.8-3.2-30-13.2-12.8-10-19.2-20-8.8 0.4-8.8 14 0 14.4 8.4 26.8 8.8 12 24.4 12zm27.2-26q0.8-4 1.2-8.4 0.4-4.4 0.4-10.4 0-18.8-4.8-37.2-4.4-18.8-7.6-35.2-9.2 15.2-19.6 29.2-10 13.6-19.2 22.8 6 12.8 18.4 24 12.8 11.2 31.2 15.2z"/></svg>